# AST/ASF file generated using VICON BodyLanguage
# -----------------------------------------------
:version 1.10
:name VICON
:units
  mass 1.0
  length 0.45
  angle deg
:documentation
   .ast/.asf automatically generated from VICON data using
   VICON BodyBuilder and BodyLanguage model FoxedUp or BRILLIANT.MOD
:root
   order TX TY TZ RX RY RZ
   axis XYZ
   position 0 0 0  
   orientation 0 0 0 
:bonedata
  begin
     id 1 
     name lhipjoint
     direction 0.635376 -0.686425 0.353719 
     length 2.47244 
     axis 0 0 0  XYZ
  end
  begin
     id 2 
     name lfemur
     direction 0.34202 -0.939693 0  
     length 7.25268  
     axis 0 0 20  XYZ
    dof rx ry rz
    limits (-160.0 20.0)
           (-70.0 70.0)
           (-60.0 70.0)
  end
  begin
     id 3 
     name ltibia
     direction 0.34202 -0.939693 0   
     length 7.6767   
     axis 0 0 20   XYZ
    dof rx
    limits (-10.0 170.0)
  end
  begin
     id 4 
     name lfoot
     direction 0.0803374 -0.220725 0.972022   
     length 2.22945   
     axis -90 7.62852e-016 20   XYZ
    dof rx rz
    limits (-45.0 90.0)
           (-70.0 20.0)
  end
  begin
     id 5 
     name ltoes
     direction 1.53579e-011 -4.21994e-011 1   
     length 1.11848   
     axis -90 7.62852e-016 20   XYZ
    dof rx
    limits (-90.0 20.0)
  end
  begin
     id 6 
     name rhipjoint
     direction -0.664428 -0.664335 0.342336   
     length 2.55466  
     axis 0 0 0  XYZ 
  end
  begin
     id 7 
     name rfemur
     direction -0.34202 -0.939693 0   
     length 6.83172   
     axis 0 0 -20   XYZ
    dof rx ry rz
    limits (-160.0 20.0)
           (-70.0 70.0)
           (-70.0 60.0)
  end
  begin
     id 8 
     name rtibia
     direction -0.34202 -0.939693 0   
     length 7.62692   
     axis 0 0 -20   XYZ
    dof rx
    limits (-10.0 170.0)
 end
 begin
     id 9 
     name rfoot
     direction -0.0949276 -0.260811 0.960711   
     length 2.19684  
     axis -90 -7.62852e-016 -20   XYZ
    dof rx rz
    limits (-45.0 90.0)
           (-20.0 70.0)
  end
  begin
     id 10 
     name rtoes
     direction -1.53543e-011 -4.2183e-011 1   
     length 1.09848   
     axis -90 -7.62852e-016 -20   XYZ
    dof rx
    limits (-90.0 20.0)
  end
  begin
     id 11 
     name lowerback
     direction 0.0118782 0.999815 -0.0151555   
     length 2.15772   
     axis 0 0 0   XYZ
    dof rx ry rz
    limits (-20.0 45.0)
           (-30.0 30.0)
           (-30.0 30.0)
  end
  begin
     id 12 
     name upperback
     direction 0.00130825 0.999065 0.0432113   
     length 2.14863   
     axis 0 0 0   XYZ
    dof rx ry rz
    limits (-20.0 45.0)
           (-30.0 30.0)
           (-30.0 30.0)
  end
  begin
     id 13 
     name thorax
     direction -0.00347005 0.998773 0.0494011   
     length 2.14936   
     axis 0 0 0   XYZ
    dof rx ry rz
    limits (-20.0 45.0)
           (-30.0 30.0)
           (-30.0 30.0)
  end
  begin
     id 14 
     name lowerneck
     direction -0.0262159 0.99424 0.103921   
     length 1.69373   
     axis 0 0 0   XYZ
    dof rx ry rz
    limits (-20.0 45.0)
           (-30.0 30.0)
           (-30.0 30.0)
  end
  begin
     id 15 
     name upperneck
     direction 0.0353511 0.977394 -0.20845   
     length 1.70857   
     axis 0 0 0   XYZ
    dof rx ry rz
    limits (-20.0 45.0)
           (-30.0 30.0)
           (-30.0 30.0)
  end
  begin
     id 16
     name head
     direction 0.0139214 0.996594 -0.0812836  
     length 1.72777  
     axis 0 0 0   XYZ
    dof rx ry rz
    limits (-20.0 45.0)
           (-30.0 30.0)
           (-30.0 30.0)
  end
  begin
     id 17 
     name lclavicle
     direction 0.841247 0.537205 -0.0609508  
     length 3.55371  
     axis 0 0 0   XYZ
    dof ry rz
    limits (-20.0 10.0)
           (0.0 20.0)
  end
  begin
     id 18 
     name lhumerus
     direction 1 -4.48964e-011 1.60116e-018   
     length 4.91377   
     axis -180 -30 -90   XYZ
    dof rx ry rz
    limits (-60.0 90.0)
           (-90.0 90.0)
           (-90.0 90.0)
  end
  begin
     id 19
     name lradius
     direction 1 -4.48989e-011 -8.93847e-027   
     length 3.00291   
     axis -180 -30 -90   XYZ
    dof rx
    limits (-10.0 170.0)
  end
  begin
     id 20
     name lwrist
     direction 1 -4.48932e-011 -7.31504e-027   
     length 1.50145   
     axis 5.74121e-015 90 90   XYZ
    dof ry
    limits (-180.0 0.0)
 end
  begin
     id 21 
     name lhand
     direction 1 -4.48971e-011 -1.46301e-026   
     length 0.450922   
     axis 9.33524e-015 90 90   XYZ
    dof rx rz
    limits (-90.0 90.0)
           (-45.0 45.0)
  end
  begin
     id 22 
     name lfingers
     direction 1 -4.49039e-011 -2.92602e-026   
     length 0.363545   
     axis 1.86705e-014 90 90   XYZ
    dof rx
    limits (0.0 90.0)
  end
  begin
     id 23
     name lthumb
     direction 0.707107 -6.34941e-011 0.707107   
     length 0.52198   
     axis -90 45 2.85299e-015   XYZ
    dof rx rz
    limits (-45.0 45.0)
           (-45.0 45.0)
  end
  begin
     id 24 
     name rclavicle
     direction -0.825079 0.56158 -0.0622297   
     length 3.39909  
     axis 0 0 0   XYZ 
    dof ry rz
    limits (-10.0 20.0)
           (-20.0 0.0)
  end
  begin
     id 25 
     name rhumerus
     direction -1 -4.48965e-011 1.61691e-027  
     length 4.86725   
     axis -180 30 90   XYZ
    dof rx ry rz
    limits (-90.0 60.0)
           (-90.0 90.0)
           (-90.0 90.0)
  end
  begin
     id 26 
     name rradius
     direction -1 -4.48964e-011 -2.25776e-027   
     length 3.17144   
     axis -180 30 90   XYZ
    dof rx
    limits (-10.0 170.0)
  end
  begin
     id 27 
     name rwrist
     direction -1 -4.48961e-011 -7.31504e-027   
     length 1.58572   
     axis 5.74121e-015 -90 -90   XYZ
    dof ry
    limits (-180.0 0.0)
  end
  begin
     id 28
     name rhand
     direction -1 -4.49013e-011 -1.46301e-026   
     length 0.419368   
     axis 9.33524e-015 -90 -90   XYZ
    dof rx rz
    limits (-90.0 90.0)
           (-45.0 45.0)
  end
  begin
     id 29
     name rfingers
     direction -1 -4.489e-011 -2.92602e-026   
     length 0.338105   
     axis 1.86705e-014 -90 -90   XYZ
    dof rx
    limits (0.0 90.0)
  end
  begin
     id 30
     name rthumb
     direction -0.707107 -6.35022e-011 0.707107   
     length 0.485453   
     axis -90 -45 -2.85299e-015   XYZ
    dof rx rz
    limits (-45.0 45.0)
           (-45.0 45.0)
  end
:hierarchy
  begin
    root lhipjoint rhipjoint lowerback
    lhipjoint lfemur
    lfemur ltibia
    ltibia lfoot
    lfoot ltoes
    rhipjoint rfemur
    rfemur rtibia
    rtibia rfoot
    rfoot rtoes
    lowerback upperback
    upperback thorax
    thorax lowerneck lclavicle rclavicle
    lowerneck upperneck
    upperneck head
    lclavicle lhumerus
    lhumerus lradius
    lradius lwrist
    lwrist lhand lthumb
    lhand lfingers
    rclavicle rhumerus
    rhumerus rradius
    rradius rwrist
    rwrist rhand rthumb
    rhand rfingers
  end

#!OML:ASF H:\Swim 2\Project 1\Capture day 1\Session 1\male.ASF
:FULLY-SPECIFIED
:DEGREES
605
root 3.39061 13.7668 9.61886 67.6673 -9.16597 175.296
lowerback 32.4578 -1.96049 4.19204
upperback 6.49018 -3.88888 -8.82853
thorax -10.6128 -2.82687 -10.1903
lowerneck -8.26032 2.58246 0.618529
upperneck 32.31 6.81664 -3.0249
head 12.1237 4.04077 -0.11473
rclavicle -1.82882e-014 -4.19436e-014
rhumerus -421.571 4.56764 -73.5038
rradius 39.3618
rwrist 333.71
rhand -35.4236 -0.541771
rfingers 7.12502
rthumb -8.55358 -30.3485
lclavicle -1.82882e-014 -4.19436e-014
lhumerus -660.071 -5.39416 -49.5308
lradius 24.5744
lwrist -683.884
lhand -8.84186 11.711
lfingers 7.12502
lthumb 17.0987 40.9786
rfemur 41.445 12.7513 35.4791
rtibia 13.4234
rfoot 38.1822 3.16348
rtoes 10.7406
lfemur 17.3109 0.881389 -21.2303
ltibia 31.1604
lfoot 6.92151 15.2006
ltoes 23.2834
606
root 3.39588 13.7801 9.63462 67.6051 -9.38745 175.284
lowerback 32.4691 -1.92349 4.02261
upperback 6.41651 -3.86324 -8.701
thorax -10.6693 -2.79947 -9.96359
lowerneck -8.18039 2.65552 0.430244
upperneck 32.4311 7.01614 -3.03347
head 12.1572 4.13166 -0.0549417
rclavicle -2.06736e-014 5.51627e-014
rhumerus -420.64 4.20121 -73.1614
rradius 37.029
rwrist 333.53
rhand -32.9553 -3.43326
rfingers 7.12502
rthumb -6.17107 -33.3234
lclavicle -2.06736e-014 5.51627e-014
lhumerus -660.506 -4.1334 -48.4949
lradius 24.2182
lwrist -687.207
lhand -8.88233 10.591
lfingers 7.12502
lthumb 17.0597 39.8619
rfemur 41.6309 12.0292 35.0663
rtibia 13.7474
rfoot 40.4768 3.40146
rtoes 10.8468
lfemur 17.4243 0.478707 -21.0836
ltibia 30.2296
lfoot 5.27702 15.6895
ltoes 23.0533
607
root 3.39763 13.7909 9.64534 67.5406 -9.59688 175.278
lowerback 32.5007 -1.89746 3.85456
upperback 6.33771 -3.84876 -8.56077
thorax -10.7407 -2.77668 -9.7188
lowerneck -8.12486 2.72074 0.244129
upperneck 32.6022 7.21518 -3.04833
head 12.2167 4.22401 0.00449063
rclavicle -1.59028e-015 -1.58034e-014
rhumerus -419.678 3.65956 -72.5873
rradius 34.6245
rwrist 333.889
rhand -30.464 -6.15258
rfingers 7.12502
rthumb -3.76552 -36.0991
lclavicle -1.59028e-015 -1.58034e-014
lhumerus -660.943 -2.86889 -47.4742
lradius 23.8707
lwrist -690.526
lhand -8.82822 9.55669
lfingers 7.12502
lthumb 17.1118 38.8231
rfemur 41.6592 11.3557 34.6632
rtibia 14.1166
rfoot 41.9687 3.7509
rtoes 11.7591
lfemur 17.5989 -0.0874893 -21.0197
ltibia 29.3973
lfoot 3.84394 16.1287
ltoes 22.3517
608
root 3.39533 13.7997 9.64973 67.4203 -9.79375 175.265
lowerback 32.6002 -1.87973 3.69693
upperback 6.26732 -3.8431 -8.40611
thorax -10.8308 -2.75952 -9.4584
lowerneck -8.13284 2.77497 0.109074
upperneck 32.891 7.43613 -3.13614
head 12.345 4.32889 0.0370349
rclavicle 0 1.2921e-015
rhumerus -418.704 2.91496 -71.7549
rradius 32.1875
rwrist 334.743
rhand -27.8784 -8.66584
rfingers 7.12502
rthumb -1.26846 -38.6418
lclavicle 0 1.2921e-015
lhumerus -661.396 -1.59732 -46.4536
lradius 23.5484
lwrist -693.759
lhand -8.70465 8.61956
lfingers 7.12502
lthumb 17.2307 37.8756
rfemur 41.5958 10.7501 34.3271
rtibia 14.5289
rfoot 42.5856 4.08454
rtoes 12.9316
lfemur 17.8939 -0.791694 -21.0444
ltibia 28.701
lfoot 2.62907 16.6173
ltoes 21.6485
609
root 3.3908 13.8069 9.65073 67.3041 -9.9839 175.266
lowerback 32.7028 -1.86619 3.53151
upperback 6.19634 -3.84182 -8.23179
thorax -10.9209 -2.7428 -9.17054
lowerneck -8.13417 2.81664 -0.0641957
upperneck 33.156 7.64527 -3.22415
head 12.4613 4.4229 0.0740415
rclavicle -3.33958e-014 -1.78906e-014
rhumerus -417.747 1.95662 -70.6491
rradius 29.7523
rwrist 336.004
rhand -25.2463 -10.9125
rfingers 7.12502
rthumb 1.27365 -40.8884
lclavicle -3.33958e-014 -1.78906e-014
lhumerus -661.857 -0.314885 -45.416
lradius 23.2523
lwrist -696.809
lhand -8.60169 7.77774
lfingers 7.12502
lthumb 17.3298 37.0251
rfemur 41.3768 10.2319 34.067
rtibia 14.9737
rfoot 42.4029 4.25393
rtoes 13.7135
lfemur 18.2411 -1.57679 -21.1407
ltibia 28.1574
lfoot 1.65882 17.1432
ltoes 21.2133
610
root 3.38412 13.8132 9.64914 67.1819 -10.1562 175.271
lowerback 32.8114 -1.85961 3.38758
upperback 6.13352 -3.8404 -8.04086
thorax -11.0034 -2.72604 -8.87671
lowerneck -8.13765 2.8511 -0.282726
upperneck 33.3984 7.84605 -3.29636
head 12.5667 4.50806 0.123351
rclavicle 4.77083e-015 5.15846e-014
rhumerus -416.83 0.749786 -69.2413
rradius 27.3545
rwrist 337.586
rhand -22.8185 -12.7879
rfingers 7.12502
rthumb 3.61841 -42.7369
lclavicle 4.77083e-015 5.15846e-014
lhumerus -662.325 0.982036 -44.369
lradius 22.9811
lwrist -699.588
lhand -8.57799 6.99626
lfingers 7.12502
lthumb 17.3526 36.2416
rfemur 41.0235 9.80267 33.9052
rtibia 15.4233
rfoot 41.6584 4.13877
rtoes 13.8606
lfemur 18.6583 -2.38179 -21.2751
ltibia 27.7699
lfoot 0.941166 17.7027
ltoes 21.2226
611
root 3.37561 13.8183 9.64591 67.0524 -10.3042 175.279
lowerback 32.931 -1.85952 3.27772
upperback 6.08193 -3.83479 -7.83361
thorax -11.0769 -2.70824 -8.58574
lowerneck -8.12823 2.87879 -0.550863
upperneck 33.586 8.03496 -3.35641
head 12.6438 4.5807 0.182166
rclavicle 4.77083e-015 5.81445e-014
rhumerus -415.98 -0.734614 -67.5062
rradius 25.0271
rwrist 339.381
rhand -20.5067 -14.3391
rfingers 7.12502
rthumb 5.85064 -44.2384
lclavicle 4.77083e-015 5.81445e-014
lhumerus -662.78 2.32675 -43.2505
lradius 22.7138
lwrist -702.128
lhand -8.66365 6.25193
lfingers 7.12502
lthumb 17.2702 35.5046
rfemur 40.5434 9.46268 33.8445
rtibia 15.8482
rfoot 40.6256 3.70414
rtoes 13.6455
lfemur 19.1465 -3.1473 -21.4152
ltibia 27.5361
lfoot 0.455974 18.2615
ltoes 21.6917
612
root 3.36506 13.8219 9.64034 66.8908 -10.4267 175.288
lowerback 33.092 -1.8689 3.21507
upperback 6.04747 -3.82827 -7.61926
thorax -11.1494 -2.69309 -8.3126
lowerneck -8.10116 2.91292 -0.864985
upperneck 33.7032 8.2148 -3.37339
head 12.6827 4.64513 0.260827
rclavicle 2.22639e-014 -1.63003e-014
rhumerus -415.213 -2.60699 -65.345
rradius 22.7748
rwrist 341.441
rhand -18.3401 -15.5575
rfingers 7.12502
rthumb 7.94211 -45.3882
lclavicle 2.22639e-014 -1.63003e-014
lhumerus -663.198 3.73799 -42.0431
lradius 22.4306
lwrist -704.431
lhand -8.88525 5.5141
lfingers 7.12502
lthumb 17.0569 34.7853
rfemur 39.9765 9.20976 33.8809
rtibia 16.2238
rfoot 39.4801 3.03718
rtoes 13.49
lfemur 19.7243 -3.80182 -21.5248
ltibia 27.4515
lfoot 0.267474 18.7379
ltoes 22.3574
613
root 3.35179 13.8233 9.63102 66.6692 -10.5159 175.291
lowerback 33.3264 -1.89144 3.21563
upperback 6.03596 -3.8231 -7.40218
thorax -11.2286 -2.68367 -8.06873
lowerneck -8.05373 2.9606 -1.19688
upperneck 33.7542 8.39803 -3.3675
head 12.6868 4.70906 0.348416
rclavicle -6.36111e-015 -7.45443e-015
rhumerus -414.578 -4.98051 -62.6427
rradius 20.6257
rwrist 343.892
rhand -16.3161 -16.4806
rfingers 7.12502
rthumb 9.89521 -46.228
lclavicle -6.36111e-015 -7.45443e-015
lhumerus -663.553 5.23192 -40.7312
lradius 22.1155
lwrist -706.549
lhand -9.25775 4.80091
lfingers 7.12502
lthumb 16.6983 34.1027
rfemur 39.3645 9.03481 34.0102
rtibia 16.5477
rfoot 38.3166 2.31644
rtoes 13.5074
lfemur 20.4146 -4.30446 -21.5687
ltibia 27.5073
lfoot 0.283369 19.0626
ltoes 23.2712
